<svg version="1.0" xmlns="http://www.w3.org/2000/svg" width="480" height="480" viewBox="0 0 360 360"><path d="M156 30.4C113.6 38 78.4 60.8 54.8 95.9c-11.9 17.8-19.3 35-23.4 54.6-2.7 12.7-2.7 46.2-.1 58.4 10.2 47.4 41.1 87.2 83.1 107.2C136 326.3 151 330 175 330.7c14.8.4 19.4.2 29.5-1.5 61.6-10.6 110.4-57.3 123.7-118.5 3.2-14.8 3.2-45.6 0-60.3-5.9-27.4-16.5-48.3-35.3-69.9C279 64.4 264.2 53 245.5 44c-13.1-6.3-20.3-8.9-34-12.1-11.6-2.7-43.9-3.6-55.5-1.5zm27.6 44c1.8 1.4 1.9 3.3 2.2 52.8l.3 51.3 27.9 28c15.7 15.7 28 28.7 28 29.7 0 2.3-3.5 5.8-5.8 5.8-1 0-15.1-13.4-32-30.3l-30.3-30.3.3-52.8c.3-50.9.4-52.8 2.2-54.2 2.5-1.8 4.7-1.8 7.2 0z"/></svg>