<?xml version="1.0" standalone="no"?>
<!DOCTYPE svg PUBLIC "-//W3C//DTD SVG 20010904//EN"
 "http://www.w3.org/TR/2001/REC-SVG-20010904/DTD/svg10.dtd">
<svg version="1.0" xmlns="http://www.w3.org/2000/svg"
 width="360.000000pt" height="360.000000pt" viewBox="0 0 360.000000 360.000000"
 preserveAspectRatio="xMidYMid meet">

<g transform="translate(0.000000,360.000000) scale(0.100000,-0.100000)"
fill="#000000" stroke="none">
<path d="M1560 3296 c-424 -76 -776 -304 -1012 -655 -119 -178 -193 -350 -234
-546 -27 -127 -27 -462 -1 -584 102 -474 411 -872 831 -1072 216 -102 366
-139 606 -146 148 -4 194 -2 295 15 616 106 1104 573 1237 1185 32 148 32 456
0 603 -59 274 -165 483 -353 699 -139 161 -287 275 -474 365 -131 63 -203 89
-340 121 -116 27 -439 36 -555 15z m276 -440 c18 -14 19 -33 22 -528 l3 -513
279 -280 c157 -157 280 -287 280 -297 0 -23 -35 -58 -58 -58 -10 0 -151 134
-320 303 l-303 303 3 528 c3 509 4 528 22 542 25 18 47 18 72 0z"/>
</g>
</svg>
