<svg xmlns="http://www.w3.org/2000/svg" width="10" height="10"><path d="M2.371.547C1.402.789.61 1.535.332 2.473c-.07.257-.082.484-.082 2.52 0 2.495-.004 2.472.328 3.097.215.41.781.945 1.2 1.14.59.27.617.274 3.226.274 2.559 0 2.613-.004 3.144-.242a2.756 2.756 0 001.34-1.297c.246-.52.25-.555.25-3.016V2.668l-.12-.348C9.3 1.45 8.53.77 7.597.543 7.207.445 2.75.453 2.37.547zm5.106.387c.84.191 1.546.832 1.761 1.605.106.39.102 4.582-.004 4.93-.125.394-.293.656-.629.976a2.29 2.29 0 01-1.16.621c-.156.032-1.015.047-2.465.047-2.418 0-2.5-.008-3.02-.25-.327-.152-.85-.652-1.015-.968-.257-.489-.261-.528-.261-2.883 0-1.785.015-2.215.07-2.422.219-.805.91-1.461 1.738-1.652.406-.094 4.57-.094 4.985-.004zm0 0"/><path d="M7.293 2.254c-.172.168-.176.348 0 .531.184.195.426.192.613-.008.11-.117.13-.168.106-.3-.055-.34-.461-.47-.719-.223zm-2.855.543a2.46 2.46 0 00-1.063.57c-.496.453-.73.965-.73 1.625 0 .633.238 1.18.69 1.606 1.056.988 2.813.824 3.622-.332.281-.399.402-.79.402-1.274-.004-.504-.113-.844-.406-1.27-.539-.761-1.566-1.144-2.516-.925zm.898.371c.527.098 1.082.46 1.344.887.703 1.14-.094 2.652-1.47 2.785-.815.082-1.62-.356-1.976-1.082-.144-.29-.156-.34-.156-.766 0-.422.012-.476.149-.75a1.95 1.95 0 011.347-1.05c.356-.075.461-.079.762-.024zm0 0"/></svg>