<?xml version="1.0" encoding="UTF-8"?>
<svg xmlns="http://www.w3.org/2000/svg" xmlns:xlink="http://www.w3.org/1999/xlink" width="10px" height="10px" fill='while' viewBox="0 0 10 10" version="1.1">
<g id="surface1">
<path fill="white"
            d="M 2.371094 0.546875 C 1.402344 0.789062 0.609375 1.535156 0.332031 2.472656 C 0.261719 2.730469 0.25 2.957031 0.25 4.992188 C 0.25 7.488281 0.246094 7.464844 0.578125 8.089844 C 0.792969 8.5 1.359375 9.035156 1.777344 9.230469 C 2.367188 9.5 2.394531 9.503906 5.003906 9.503906 C 7.5625 9.503906 7.617188 9.5 8.148438 9.261719 C 8.722656 9.007812 9.230469 8.515625 9.488281 7.964844 C 9.734375 7.445312 9.738281 7.410156 9.738281 4.949219 L 9.738281 2.667969 L 9.617188 2.320312 C 9.300781 1.449219 8.53125 0.769531 7.597656 0.542969 C 7.207031 0.445312 2.75 0.453125 2.371094 0.546875 Z M 7.476562 0.933594 C 8.316406 1.125 9.023438 1.765625 9.238281 2.539062 C 9.34375 2.929688 9.339844 7.121094 9.234375 7.46875 C 9.109375 7.863281 8.941406 8.125 8.605469 8.445312 C 8.253906 8.78125 7.875 8.980469 7.445312 9.066406 C 7.289062 9.097656 6.429688 9.113281 4.980469 9.113281 C 2.5625 9.113281 2.480469 9.105469 1.960938 8.863281 C 1.632812 8.710938 1.109375 8.210938 0.945312 7.894531 C 0.6875 7.40625 0.683594 7.367188 0.683594 5.011719 C 0.683594 3.226562 0.699219 2.796875 0.753906 2.589844 C 0.972656 1.785156 1.664062 1.128906 2.492188 0.9375 C 2.898438 0.84375 7.0625 0.84375 7.476562 0.933594 Z M 7.476562 0.933594 " />
<path fill="white"
            d="M 7.292969 2.253906 C 7.121094 2.421875 7.117188 2.601562 7.292969 2.785156 C 7.476562 2.980469 7.71875 2.976562 7.90625 2.777344 C 8.015625 2.660156 8.035156 2.609375 8.011719 2.476562 C 7.957031 2.136719 7.550781 2.007812 7.292969 2.253906 Z M 7.292969 2.253906 " />
<path fill="white"
            d="M 4.4375 2.796875 C 4.058594 2.886719 3.703125 3.078125 3.375 3.367188 C 2.878906 3.820312 2.644531 4.332031 2.644531 4.992188 C 2.644531 5.625 2.882812 6.171875 3.335938 6.597656 C 4.390625 7.585938 6.148438 7.421875 6.957031 6.265625 C 7.238281 5.867188 7.359375 5.476562 7.359375 4.992188 C 7.355469 4.488281 7.246094 4.148438 6.953125 3.722656 C 6.414062 2.960938 5.386719 2.578125 4.4375 2.796875 Z M 5.335938 3.167969 C 5.863281 3.265625 6.417969 3.628906 6.679688 4.054688 C 7.382812 5.195312 6.585938 6.707031 5.210938 6.839844 C 4.394531 6.921875 3.589844 6.484375 3.234375 5.757812 C 3.089844 5.46875 3.078125 5.417969 3.078125 4.992188 C 3.078125 4.570312 3.089844 4.515625 3.226562 4.242188 C 3.5 3.695312 3.992188 3.3125 4.574219 3.191406 C 4.929688 3.117188 5.035156 3.113281 5.335938 3.167969 Z M 5.335938 3.167969 " />
</g>
</svg>
