<?xml version="1.0" standalone="no"?>
<!DOCTYPE svg PUBLIC "-//W3C//DTD SVG 20010904//EN"
 "http://www.w3.org/TR/2001/REC-SVG-20010904/DTD/svg10.dtd">
<svg version="1.0" xmlns="http://www.w3.org/2000/svg"
 width="225.000000pt" height="225.000000pt" viewBox="0 0 225.000000 225.000000"
 preserveAspectRatio="xMidYMid meet">

<g transform="translate(0.000000,225.000000) scale(0.100000,-0.100000)"
fill="#000000" stroke="none">
<path d="M643 1955 c-180 -39 -324 -190 -353 -371 -13 -79 -13 -856 0 -925 35
-181 177 -326 357 -364 98 -21 858 -21 956 0 180 38 322 183 357 364 13 69 13
846 0 925 -29 180 -169 328 -351 371 -88 20 -871 21 -966 0z m1027 -91 c83
-39 150 -106 192 -192 l33 -67 0 -480 0 -480 -33 -67 c-42 -86 -109 -153 -192
-192 l-65 -31 -480 0 -480 0 -65 31 c-83 39 -150 106 -192 192 l-33 67 0 480
0 480 33 67 c54 109 152 191 259 217 21 5 245 9 498 8 l460 -2 65 -31z"/>
<path d="M1530 1623 c-50 -64 29 -143 93 -93 18 15 27 31 27 51 0 65 -80 93
-120 42z"/>
<path d="M1005 1489 c-117 -37 -208 -130 -245 -248 -64 -203 46 -417 249 -481
203 -64 417 46 481 249 94 298 -187 577 -485 480z m260 -81 c60 -31 114 -86
146 -148 20 -38 24 -60 24 -135 0 -78 -4 -97 -27 -140 -32 -60 -87 -114 -148
-146 -38 -20 -60 -24 -135 -24 -75 0 -97 4 -135 24 -61 32 -116 86 -148 146
-23 43 -27 62 -27 140 0 102 18 150 84 218 66 71 136 98 241 93 57 -2 87 -9
125 -28z"/>
</g>
</svg>
