<svg xmlns="http://www.w3.org/2000/svg" xmlns:xlink="http://www.w3.org/1999/xlink" width="15px"
	height="15px" viewBox="0 0 15 15" version="1.1"> 
		<path 
		d="M 14.160156 0.824219 C 13.609375 0.273438 12.949219 0 12.175781 0 L 2.808594 0 C 2.035156 0 1.375 0.273438 0.824219 0.824219 C 0.273438 1.375 0 2.035156 0 2.808594 L 0 12.175781 C 0 12.949219 0.273438 13.609375 0.824219 14.160156 C 1.375 14.710938 2.035156 14.984375 2.808594 14.984375 L 12.175781 14.984375 C 12.949219 14.984375 13.609375 14.710938 14.160156 14.160156 C 14.710938 13.609375 14.984375 12.949219 14.984375 12.175781 L 14.984375 2.808594 C 14.984375 2.035156 14.710938 1.375 14.160156 0.824219 Z M 12.273438 11.375 C 12.136719 11.671875 11.828125 11.933594 11.351562 12.15625 C 10.871094 12.375 10.449219 12.484375 10.078125 12.484375 C 9.972656 12.484375 9.863281 12.476562 9.746094 12.460938 C 9.628906 12.445312 9.527344 12.429688 9.449219 12.414062 C 9.367188 12.398438 9.257812 12.367188 9.125 12.324219 C 8.992188 12.285156 8.894531 12.25 8.839844 12.226562 C 8.78125 12.207031 8.671875 12.164062 8.515625 12.105469 C 8.359375 12.046875 8.261719 12.011719 8.222656 12 C 7.15625 11.609375 6.113281 10.90625 5.097656 9.886719 C 4.078125 8.867188 3.375 7.828125 2.984375 6.761719 C 2.972656 6.722656 2.9375 6.625 2.878906 6.46875 C 2.820312 6.3125 2.777344 6.203125 2.753906 6.144531 C 2.734375 6.085938 2.699219 5.992188 2.660156 5.859375 C 2.617188 5.726562 2.585938 5.617188 2.570312 5.535156 C 2.554688 5.453125 2.539062 5.355469 2.523438 5.238281 C 2.503906 5.121094 2.496094 5.011719 2.496094 4.90625 C 2.496094 4.535156 2.609375 4.113281 2.828125 3.632812 C 3.050781 3.15625 3.308594 2.847656 3.609375 2.710938 C 3.953125 2.570312 4.28125 2.496094 4.59375 2.496094 C 4.667969 2.496094 4.71875 2.503906 4.75 2.515625 C 4.785156 2.53125 4.835938 2.589844 4.910156 2.691406 C 4.988281 2.796875 5.066406 2.929688 5.15625 3.085938 C 5.242188 3.246094 5.328125 3.402344 5.414062 3.550781 C 5.5 3.699219 5.582031 3.847656 5.660156 3.996094 C 5.734375 4.140625 5.785156 4.234375 5.804688 4.273438 C 5.824219 4.304688 5.867188 4.367188 5.929688 4.457031 C 5.996094 4.550781 6.046875 4.628906 6.078125 4.703125 C 6.109375 4.773438 6.125 4.84375 6.125 4.90625 C 6.125 5.003906 6.058594 5.125 5.925781 5.261719 C 5.792969 5.402344 5.648438 5.53125 5.488281 5.648438 C 5.328125 5.765625 5.183594 5.890625 5.046875 6.023438 C 4.914062 6.15625 4.847656 6.265625 4.847656 6.351562 C 4.847656 6.394531 4.859375 6.449219 4.882812 6.511719 C 4.90625 6.574219 4.925781 6.625 4.945312 6.664062 C 4.964844 6.703125 4.996094 6.757812 5.039062 6.828125 C 5.082031 6.902344 5.109375 6.945312 5.121094 6.964844 C 5.480469 7.609375 5.890625 8.164062 6.355469 8.628906 C 6.820312 9.09375 7.375 9.503906 8.019531 9.863281 C 8.039062 9.875 8.082031 9.902344 8.15625 9.945312 C 8.226562 9.988281 8.28125 10.019531 8.320312 10.039062 C 8.359375 10.058594 8.410156 10.078125 8.472656 10.101562 C 8.535156 10.125 8.589844 10.136719 8.632812 10.136719 C 8.738281 10.136719 8.878906 10.027344 9.0625 9.8125 C 9.246094 9.597656 9.429688 9.386719 9.621094 9.175781 C 9.808594 8.964844 9.960938 8.859375 10.078125 8.859375 C 10.144531 8.859375 10.210938 8.875 10.28125 8.90625 C 10.355469 8.9375 10.433594 8.988281 10.527344 9.054688 C 10.617188 9.117188 10.679688 9.160156 10.710938 9.179688 L 11.230469 9.460938 C 11.574219 9.644531 11.859375 9.804688 12.09375 9.945312 C 12.324219 10.085938 12.449219 10.179688 12.46875 10.234375 C 12.480469 10.265625 12.488281 10.316406 12.488281 10.390625 C 12.488281 10.703125 12.414062 11.03125 12.273438 11.375 Z M 12.273438 11.375 " />
</svg>
