<svg xmlns="http://www.w3.org/2000/svg" width="15" height="15"><path d="M14.16.824A2.702 2.702 0 0012.176 0H2.809C2.035 0 1.375.273.824.824A2.706 2.706 0 000 2.81v9.367c0 .773.273 1.433.824 1.984.551.55 1.211.824 1.985.824h9.367c.773 0 1.433-.273 1.984-.824.55-.55.824-1.21.824-1.984V2.809c0-.774-.273-1.434-.824-1.985zm-1.887 10.551c-.136.297-.445.559-.921.781-.48.219-.903.328-1.274.328a2.44 2.44 0 01-.332-.023 2.906 2.906 0 01-.621-.137 2.767 2.767 0 01-.285-.097c-.059-.02-.168-.063-.324-.122A6.652 6.652 0 008.223 12c-1.067-.39-2.11-1.094-3.125-2.113-1.02-1.02-1.723-2.059-2.114-3.125a16.425 16.425 0 00-.23-.617c-.02-.06-.055-.153-.094-.286a2.906 2.906 0 01-.137-.62 2.001 2.001 0 01-.027-.333c0-.37.113-.793.332-1.273.223-.477.48-.785.781-.922.344-.14.672-.215.985-.215a.46.46 0 01.156.02c.035.015.086.074.16.175.078.106.156.239.246.395.086.16.172.316.258.465.086.148.168.297.246.445.074.145.125.238.145.277.02.032.062.094.125.184.066.094.117.172.148.246a.51.51 0 01.047.203c0 .098-.066.219-.2.356a3.11 3.11 0 01-.437.386c-.16.118-.304.243-.441.375-.133.133-.2.243-.2.329 0 .043.012.097.036.16.023.062.043.113.062.152.02.04.051.094.094.164.043.074.07.117.082.137.36.644.77 1.2 1.234 1.664.465.465 1.02.875 1.665 1.234.02.012.062.04.136.082a2.4 2.4 0 00.164.094c.04.02.09.04.153.063a.477.477 0 00.16.035c.105 0 .246-.11.43-.325.183-.214.367-.425.558-.636.188-.211.34-.317.457-.317.067 0 .133.016.203.047.074.031.153.082.246.149l.184.125.52.28c.343.185.628.345.863.485.23.14.355.235.375.29.011.03.02.081.02.156 0 .312-.075.64-.216.984zm0 0"/></svg>