<?xml version="1.0" standalone="no"?>
<!DOCTYPE svg PUBLIC "-//W3C//DTD SVG 20010904//EN"
 "http://www.w3.org/TR/2001/REC-SVG-20010904/DTD/svg10.dtd">
<svg version="1.0" xmlns="http://www.w3.org/2000/svg"
 width="225.000000pt" height="225.000000pt" viewBox="0 0 225.000000 225.000000"
 preserveAspectRatio="xMidYMid meet">
<!-- fill="#F5F5F5" -->
    <g transform="translate(0.000000,225.000000) scale(0.100000,-0.100000)"
        fill="#000000" stroke="none">
<path d="M1040 1886 c-130 -28 -228 -105 -287 -224 -37 -74 -38 -79 -38 -187
0 -104 2 -114 32 -176 18 -35 50 -84 73 -109 22 -24 39 -44 38 -44 -156 -61
-313 -191 -391 -324 -73 -124 -105 -236 -109 -382 l-3 -85 770 0 770 0 -3 90
c-9 289 -178 549 -437 671 -33 16 -62 30 -64 31 -2 1 15 22 38 45 23 24 56 72
74 108 30 61 32 71 32 176 0 107 -1 112 -38 186 -60 123 -165 202 -301 227
-71 13 -85 13 -156 -3z m206 -154 c130 -66 189 -199 150 -334 -20 -69 -87
-147 -154 -179 -65 -32 -168 -32 -234 -1 -97 48 -168 158 -168 261 0 116 79
223 197 267 53 20 157 13 209 -14z m-1 -687 c123 -23 234 -83 324 -174 101
-101 150 -195 185 -353 l6 -28 -635 0 -635 0 6 28 c35 158 84 252 185 353 151
152 353 215 564 174z"/>
</g>
</svg>
