<svg version="1.0" xmlns="http://www.w3.org/2000/svg" width="300" height="300" viewBox="0 0 225 225"><path d="M104 36.4c-13 2.8-22.8 10.5-28.7 22.4-3.7 7.4-3.8 7.9-3.8 18.7 0 10.4.2 11.4 3.2 17.6 1.8 3.5 5 8.4 7.3 10.9 2.2 2.4 3.9 4.4 3.8 4.4-15.6 6.1-31.3 19.1-39.1 32.4-7.3 12.4-10.5 23.6-10.9 38.2l-.3 8.5h154l-.3-9c-.9-28.9-17.8-54.9-43.7-67.1-3.3-1.6-6.2-3-6.4-3.1-.2-.1 1.5-2.2 3.8-4.5 2.3-2.4 5.6-7.2 7.4-10.8 3-6.1 3.2-7.1 3.2-17.6 0-10.7-.1-11.2-3.8-18.6-6-12.3-16.5-20.2-30.1-22.7-7.1-1.3-8.5-1.3-15.6.3zm20.6 15.4c13 6.6 18.9 19.9 15 33.4-2 6.9-8.7 14.7-15.4 17.9-6.5 3.2-16.8 3.2-23.4.1C91.1 98.4 84 87.4 84 77.1c0-11.6 7.9-22.3 19.7-26.7 5.3-2 15.7-1.3 20.9 1.4zm-.1 68.7c12.3 2.3 23.4 8.3 32.4 17.4 10.1 10.1 15 19.5 18.5 35.3l.6 2.8H49l.6-2.8c3.5-15.8 8.4-25.2 18.5-35.3 15.1-15.2 35.3-21.5 56.4-17.4z"/></svg>