<?xml version="1.0" standalone="no"?>
<!DOCTYPE svg PUBLIC "-//W3C//DTD SVG 20010904//EN" "http://www.w3.org/TR/2001/REC-SVG-20010904/DTD/svg10.dtd">
<svg version="1.0" xmlns="http://www.w3.org/2000/svg"
    width="225.000000pt" height="225.000000pt" viewBox="0 0 225.000000 225.000000"
    preserveAspectRatio="xMidYMid meet">
    <!-- fill="#F5F5F5" -->
    <g transform="translate(0.000000,225.000000) scale(0.100000,-0.100000)"
        fill="#000000" stroke="none">
        <path
            d="M785 2239 c-306 -47 -559 -270 -657 -579 -22 -73 -23 -86 -23 -420
l0 -345 33 -95 c43 -124 98 -215 185 -307 71 -74 192 -163 254 -185 l33 -12 0
-132 c0 -107 3 -136 16 -148 8 -9 22 -16 29 -16 8 0 73 54 146 119 l132 119
281 4 281 3 95 33 c134 46 221 101 321 201 100 100 154 187 201 321 l33 95 0
340 c0 386 -2 399 -80 560 -99 204 -275 352 -500 421 -89 27 -93 28 -405 30
-173 1 -342 -2 -375 -7z m725 -94 c206 -51 392 -202 481 -390 67 -140 72 -170
77 -467 4 -288 -3 -366 -43 -481 -64 -185 -228 -357 -411 -431 -114 -47 -193
-56 -465 -56 l-251 0 -97 -87 -96 -87 -3 79 c-3 122 -2 119 -95 163 -196 93
-346 270 -404 482 -15 56 -18 108 -18 370 0 226 4 319 14 360 76 305 325 525
635 560 124 15 601 4 676 -15z" />
        <path
            d="M625 1744 c-94 -84 -113 -112 -122 -183 -11 -92 37 -197 165 -366
147 -193 389 -385 663 -526 79 -40 181 -26 247 34 31 29 132 190 132 211 0 10
-57 54 -152 116 -139 90 -157 100 -200 100 -41 0 -54 -5 -88 -36 -45 -40 -50
-40 -143 9 -71 37 -137 108 -176 190 l-29 61 32 37 c39 43 52 95 34 138 -20
47 -237 291 -259 291 -10 0 -57 -34 -104 -76z m194 -134 c52 -60 91 -114 91
-126 0 -12 -17 -36 -40 -57 -22 -19 -40 -41 -40 -47 0 -24 54 -147 87 -197 60
-90 144 -154 258 -193 83 -28 101 -26 127 15 38 58 53 56 185 -30 65 -42 117
-81 116 -85 -5 -19 -72 -116 -91 -134 -36 -32 -100 -32 -162 -1 -83 42 -256
151 -339 213 -180 136 -398 409 -420 527 -13 72 1 106 71 169 34 31 63 55 64
53 2 -1 44 -50 93 -107z" />
    </g>
</svg>