<?xml version="1.0" standalone="no"?>
<!DOCTYPE svg PUBLIC "-//W3C//DTD SVG 20010904//EN" "http://www.w3.org/TR/2001/REC-SVG-20010904/DTD/svg10.dtd">
<svg version="1.0" xmlns="http://www.w3.org/2000/svg"
    width="225.000000pt" height="225.000000pt" viewBox="0 0 225.000000 225.000000"
    preserveAspectRatio="xMidYMid meet">
    <g transform="translate(0.000000,225.000000) scale(0.100000,-0.100000)"
        fill="#000000" stroke="none">
        <path
            d="M900 2051 c-140 -109 -255 -204 -255 -212 0 -15 502 -408 522 -409
24 0 21 19 -28 140 -27 69 -49 131 -49 138 0 29 209 4 304 -38 129 -55 249
-178 301 -308 80 -198 36 -437 -107 -588 -57 -61 -61 -44 42 -168 l65 -77 66
69 c83 86 138 179 181 302 31 91 32 102 33 245 0 119 -4 164 -19 215 -43 147
-114 266 -218 368 -156 153 -349 232 -563 232 -61 0 -85 3 -85 13 0 6 22 66
48 133 47 117 53 145 29 143 -7 0 -127 -89 -267 -198z" />
        <path
            d="M466 1628 c-68 -77 -121 -170 -158 -278 -31 -91 -32 -102 -33 -245 0
-119 4 -164 19 -215 43 -147 114 -266 218 -368 156 -153 349 -232 563 -232 61
0 85 -3 85 -12 0 -7 -22 -68 -49 -135 -46 -115 -51 -154 -20 -140 36 16 514
395 514 408 0 15 -502 408 -522 409 -24 0 -21 -19 28 -140 27 -69 49 -131 49
-137 0 -30 -209 -5 -304 37 -226 97 -370 347 -337 585 17 118 73 244 136 305
l34 33 -80 89 c-45 48 -85 88 -89 88 -5 0 -29 -24 -54 -52z" />
    </g>
</svg>