<svg version="1.0" xmlns="http://www.w3.org/2000/svg" width="11px" height="12px"
    viewBox="0 0 130.000000 130.000000" preserveAspectRatio="xMidYMid meet">
    <g transform="translate(0.000000,130.000000) scale(0.100000,-0.100000)" fill="#b9a36b"
        stroke="none">
        <path
            d="M599 1251 c-13 -10 -60 -90 -104 -177 l-80 -159 -175 -26 c-97 -14
-185 -31 -196 -37 -28 -15 -48 -65 -39 -99 4 -18 55 -74 137 -154 l131 -125
-30 -180 c-32 -191 -31 -220 10 -249 12 -8 33 -15 47 -16 14 0 98 37 188 83
l162 83 163 -83 c89 -46 173 -83 187 -83 14 1 35 8 47 16 41 29 42 58 10 249
l-30 180 131 125 c82 80 133 136 137 154 9 34 -11 84 -39 99 -11 6 -99 23
-196 37 l-175 26 -80 159 c-84 165 -108 196 -155 196 -15 0 -38 -9 -51 -19z" />
    </g>
</svg>