<?xml version="1.0" standalone="no"?>
<!DOCTYPE svg PUBLIC "-//W3C//DTD SVG 20010904//EN"
 "http://www.w3.org/TR/2001/REC-SVG-20010904/DTD/svg10.dtd">
<svg version="1.0" xmlns="http://www.w3.org/2000/svg"
 width="225.000000pt" height="225.000000pt" viewBox="0 0 225.000000 225.000000"
 preserveAspectRatio="xMidYMid meet">

<g transform="translate(0.000000,225.000000) scale(0.100000,-0.100000)"
fill="#000000" stroke="none">
<path d="M17 2232 c-16 -17 -17 -108 -17 -1109 0 -1043 1 -1091 18 -1106 17
-16 108 -17 1109 -17 1043 0 1091 1 1106 18 16 17 17 108 17 1109 0 1043 -1
1091 -18 1106 -17 16 -108 17 -1109 17 -1043 0 -1091 -1 -1106 -18z m805 -509
c105 -105 168 -175 168 -188 0 -11 -36 -56 -87 -107 l-86 -87 17 -43 c40 -106
177 -279 288 -364 66 -51 180 -114 206 -114 10 0 55 38 102 85 50 50 93 85
105 85 28 0 355 -328 355 -355 0 -25 -198 -224 -250 -250 -50 -27 -186 -31
-275 -11 -195 46 -489 239 -666 438 -159 177 -288 399 -325 555 -21 91 -16
222 11 273 26 51 225 250 249 250 13 0 81 -60 188 -167z"/>
</g>
</svg>
