<svg version="1.0" xmlns="http://www.w3.org/2000/svg" width="300" height="300" viewBox="0 0 225 225"><path d="M78.5 1.1C47.9 5.8 22.6 28.1 12.8 59c-2.2 7.3-2.3 8.6-2.3 42v34.5l3.3 9.5c4.3 12.4 9.8 21.5 18.5 30.7 7.1 7.4 19.2 16.3 25.4 18.5l3.3 1.2v13.2c0 10.7.3 13.6 1.6 14.8.8.9 2.2 1.6 2.9 1.6.8 0 7.3-5.4 14.6-11.9l13.2-11.9 28.1-.4 28.1-.3 9.5-3.3c13.4-4.6 22.1-10.1 32.1-20.1 10-10 15.4-18.7 20.1-32.1l3.3-9.5v-34c0-38.6-.2-39.9-8-56-9.9-20.4-27.5-35.2-50-42.1-8.9-2.7-9.3-2.8-40.5-3-17.3-.1-34.2.2-37.5.7zm72.5 9.4c20.6 5.1 39.2 20.2 48.1 39 6.7 14 7.2 17 7.7 46.7.4 28.8-.3 36.6-4.3 48.1-6.4 18.5-22.8 35.7-41.1 43.1-11.4 4.7-19.3 5.6-46.5 5.6H89.8l-9.7 8.7-9.6 8.7-.3-7.9c-.3-12.2-.2-11.9-9.5-16.3-19.6-9.3-34.6-27-40.4-48.2-1.5-5.6-1.8-10.8-1.8-37 0-22.6.4-31.9 1.4-36 7.6-30.5 32.5-52.5 63.5-56 12.4-1.5 60.1-.4 67.6 1.5z"/><path d="M62.5 50.6C53.1 59 51.2 61.8 50.3 68.9c-1.1 9.2 3.7 19.7 16.5 36.6 14.7 19.3 38.9 38.5 66.3 52.6 7.9 4 18.1 2.6 24.7-3.4 3.1-2.9 13.2-19 13.2-21.1 0-1-5.7-5.4-15.2-11.6-13.9-9-15.7-10-20-10-4.1 0-5.4.5-8.8 3.6-4.5 4-5 4-14.3-.9-7.1-3.7-13.7-10.8-17.6-19l-2.9-6.1 3.2-3.7c3.9-4.3 5.2-9.5 3.4-13.8-2-4.7-23.7-29.1-25.9-29.1-1 0-5.7 3.4-10.4 7.6zM81.9 64c5.2 6 9.1 11.4 9.1 12.6 0 1.2-1.7 3.6-4 5.7-2.2 1.9-4 4.1-4 4.7 0 2.4 5.4 14.7 8.7 19.7 6 9 14.4 15.4 25.8 19.3 8.3 2.8 10.1 2.6 12.7-1.5 3.8-5.8 5.3-5.6 18.5 3 6.5 4.2 11.7 8.1 11.6 8.5-.5 1.9-7.2 11.6-9.1 13.4-3.6 3.2-10 3.2-16.2.1-8.3-4.2-25.6-15.1-33.9-21.3-18-13.6-39.8-40.9-42-52.7-1.3-7.2.1-10.6 7.1-16.9 3.4-3.1 6.3-5.5 6.4-5.3.2.1 4.4 5 9.3 10.7z"/></svg>