<?xml version="1.0" encoding="utf-8"?><svg viewBox="0 0 480 480" xmlns="http://www.w3.org/2000/svg" xmlns:xlink="http://www.w3.org/1999/xlink"><style>:root>svg{display:none}:root>svg:target{display:block}</style><svg viewBox="0 0 18 32" id="arrow-left" xmlns="http://www.w3.org/2000/svg"><path d="M.228 16.412c0-.551.21-1.101.628-1.521L14.029 1.682c.838-.84 2.197-.84 3.034 0s.838 2.202 0 3.042L5.407 16.411l11.656 11.688c.838.84.838 2.202 0 3.042s-2.196.841-3.034 0L.856 17.932a2.15 2.15 0 0 1-.628-1.521z"/></svg><svg viewBox="0 0 18 32" id="arrow-right" xmlns="http://www.w3.org/2000/svg"><path d="M17.692 16.412a2.15 2.15 0 0 0-.628-1.521L3.891 1.682c-.838-.84-2.197-.84-3.034 0s-.838 2.202 0 3.042l11.656 11.687L.857 28.099c-.838.84-.838 2.202 0 3.042s2.196.841 3.034 0l13.173-13.209c.418-.42.628-.97.628-1.521z"/></svg><svg version="1.0" viewBox="0 0 360 360" id="clock" xmlns="http://www.w3.org/2000/svg"><path d="M156 30.4C113.6 38 78.4 60.8 54.8 95.9c-11.9 17.8-19.3 35-23.4 54.6-2.7 12.7-2.7 46.2-.1 58.4 10.2 47.4 41.1 87.2 83.1 107.2C136 326.3 151 330 175 330.7c14.8.4 19.4.2 29.5-1.5 61.6-10.6 110.4-57.3 123.7-118.5 3.2-14.8 3.2-45.6 0-60.3-5.9-27.4-16.5-48.3-35.3-69.9C279 64.4 264.2 53 245.5 44c-13.1-6.3-20.3-8.9-34-12.1-11.6-2.7-43.9-3.6-55.5-1.5zm27.6 44c1.8 1.4 1.9 3.3 2.2 52.8l.3 51.3 27.9 28c15.7 15.7 28 28.7 28 29.7 0 2.3-3.5 5.8-5.8 5.8-1 0-15.1-13.4-32-30.3l-30.3-30.3.3-52.8c.3-50.9.4-52.8 2.2-54.2 2.5-1.8 4.7-1.8 7.2 0z"/></svg><svg fill="while" viewBox="0 0 10 10" id="instagram" xmlns="http://www.w3.org/2000/svg"><g fill="#fff"><path d="M2.371.547C1.402.789.61 1.535.332 2.473c-.07.257-.082.484-.082 2.52 0 2.495-.004 2.472.328 3.097.215.41.781.945 1.2 1.14.59.27.617.274 3.226.274 2.559 0 2.613-.004 3.144-.242a2.756 2.756 0 0 0 1.34-1.297c.246-.52.25-.555.25-3.016V2.668l-.12-.348C9.3 1.45 8.53.77 7.597.543 7.207.445 2.75.453 2.37.547Zm5.106.387c.84.191 1.546.832 1.761 1.605.106.39.102 4.582-.004 4.93-.125.394-.293.656-.629.976a2.29 2.29 0 0 1-1.16.621c-.156.032-1.015.047-2.465.047-2.418 0-2.5-.008-3.02-.25-.327-.152-.85-.652-1.015-.968-.257-.489-.261-.528-.261-2.883 0-1.785.015-2.215.07-2.422.219-.805.91-1.461 1.738-1.652.406-.094 4.57-.094 4.985-.004Zm0 0"/><path d="M7.293 2.254c-.172.168-.176.348 0 .531.184.195.426.192.613-.008.11-.117.13-.168.106-.3-.055-.34-.461-.47-.719-.223ZM4.438 2.797c-.38.09-.735.281-1.063.57-.496.453-.73.965-.73 1.625 0 .633.238 1.18.69 1.606 1.056.988 2.813.824 3.622-.332.281-.399.402-.79.402-1.274-.004-.504-.113-.844-.406-1.27-.539-.761-1.566-1.144-2.516-.925Zm.898.371c.527.098 1.082.46 1.344.887.703 1.14-.094 2.652-1.47 2.785-.815.082-1.62-.356-1.976-1.082-.144-.29-.156-.34-.156-.766 0-.422.012-.476.149-.75a1.95 1.95 0 0 1 1.347-1.05c.356-.075.461-.079.762-.024Zm0 0"/></g></svg><svg viewBox="0 0 32 32" id="instagram2" xmlns="http://www.w3.org/2000/svg"><path fill="#fff" style="fill:var(--color2, #ffffff)" d="M23.041 0H8.782C3.94 0 0 3.94 0 8.782v14.259c0 4.843 3.94 8.782 8.782 8.782h14.259c4.843 0 8.782-3.94 8.782-8.782V8.782C31.823 3.94 27.883 0 23.041 0z"/><path style="fill:var(--color3, #000)" d="M15.912 7.712c-4.522 0-8.2 3.678-8.2 8.2s3.678 8.2 8.2 8.2 8.2-3.678 8.2-8.2c0-4.522-3.678-8.2-8.2-8.2zm0 13.576c-2.965 0-5.377-2.412-5.377-5.376s2.412-5.377 5.377-5.377 5.377 2.412 5.377 5.377a5.382 5.382 0 0 1-5.377 5.376zM25.585 5.318a3.208 3.208 0 0 0-3.2 3.2c0 .841.343 1.667.94 2.263.593.593 1.42.937 2.26.937.844 0 1.667-.343 2.263-.937a3.226 3.226 0 0 0 .937-2.263c0-.844-.34-1.67-.937-2.263a3.215 3.215 0 0 0-2.263-.937z"/></svg><svg viewBox="0 0 15 15" id="tel" xmlns="http://www.w3.org/2000/svg"><path style="stroke:none;fill-rule:nonzero;fill:#000;fill-opacity:1" d="M14.16.824A2.702 2.702 0 0 0 12.176 0H2.809C2.035 0 1.375.273.824.824.274 1.375 0 2.035 0 2.81v9.367c0 .773.273 1.433.824 1.984.551.55 1.211.824 1.985.824h9.367c.773 0 1.433-.273 1.984-.824.55-.55.824-1.21.824-1.984V2.809c0-.774-.273-1.434-.824-1.985Zm-1.887 10.551c-.136.297-.445.559-.921.781-.48.219-.903.328-1.274.328-.105 0-.215-.007-.332-.023a2.906 2.906 0 0 1-.621-.137 2.767 2.767 0 0 1-.285-.097c-.059-.02-.168-.063-.324-.122A6.652 6.652 0 0 0 8.223 12c-1.067-.39-2.11-1.094-3.125-2.113-1.02-1.02-1.723-2.059-2.114-3.125a16.425 16.425 0 0 0-.23-.617c-.02-.06-.055-.153-.094-.286a2.906 2.906 0 0 1-.137-.62 2.001 2.001 0 0 1-.027-.333c0-.37.113-.793.332-1.273.223-.477.48-.785.781-.922.344-.14.672-.215.985-.215.074 0 .125.008.156.02.035.015.086.074.16.175.078.106.156.239.246.395.086.16.172.316.258.465.086.148.168.297.246.445.074.145.125.238.145.277.02.032.062.094.125.184.066.094.117.172.148.246.031.07.047.14.047.203 0 .098-.066.219-.2.356-.132.14-.277.27-.437.386-.16.118-.304.243-.441.375-.133.133-.2.243-.2.329 0 .043.012.097.036.16.023.062.043.113.062.152.02.04.051.094.094.164.043.074.07.117.082.137.36.644.77 1.2 1.234 1.664.465.465 1.02.875 1.665 1.234.02.012.062.04.136.082a2.4 2.4 0 0 0 .164.094c.04.02.09.04.153.063a.477.477 0 0 0 .16.035c.105 0 .246-.11.43-.325.183-.214.367-.425.558-.636.188-.211.34-.317.457-.317.067 0 .133.016.203.047.074.031.153.082.246.149l.184.125.52.28c.343.185.628.345.863.485.23.14.355.235.375.29.011.03.02.081.02.156 0 .312-.075.64-.216.984Zm0 0"/></svg></svg>