<?xml version="1.0" encoding="utf-8"?><svg viewBox="0 0 480 480" xmlns="http://www.w3.org/2000/svg" xmlns:xlink="http://www.w3.org/1999/xlink"><style>:root>svg{display:none}:root>svg:target{display:block}</style><svg viewBox="0 0 18 32" id="arrow-left" xmlns="http://www.w3.org/2000/svg"><path d="M.228 16.412c0-.551.21-1.101.628-1.521L14.029 1.682c.838-.84 2.197-.84 3.034 0s.838 2.202 0 3.042L5.407 16.411l11.656 11.688c.838.84.838 2.202 0 3.042s-2.196.841-3.034 0L.856 17.932a2.15 2.15 0 0 1-.628-1.521z"/></svg><svg viewBox="0 0 18 32" id="arrow-right" xmlns="http://www.w3.org/2000/svg"><path d="M17.692 16.412a2.15 2.15 0 0 0-.628-1.521L3.891 1.682c-.838-.84-2.197-.84-3.034 0s-.838 2.202 0 3.042l11.656 11.687L.857 28.099c-.838.84-.838 2.202 0 3.042s2.196.841 3.034 0l13.173-13.209c.418-.42.628-.97.628-1.521z"/></svg><svg version="1.0" viewBox="0 0 360 360" id="clock" xmlns="http://www.w3.org/2000/svg"><path d="M156 30.4C113.6 38 78.4 60.8 54.8 95.9c-11.9 17.8-19.3 35-23.4 54.6-2.7 12.7-2.7 46.2-.1 58.4 10.2 47.4 41.1 87.2 83.1 107.2C136 326.3 151 330 175 330.7c14.8.4 19.4.2 29.5-1.5 61.6-10.6 110.4-57.3 123.7-118.5 3.2-14.8 3.2-45.6 0-60.3-5.9-27.4-16.5-48.3-35.3-69.9C279 64.4 264.2 53 245.5 44c-13.1-6.3-20.3-8.9-34-12.1-11.6-2.7-43.9-3.6-55.5-1.5zm27.6 44c1.8 1.4 1.9 3.3 2.2 52.8l.3 51.3 27.9 28c15.7 15.7 28 28.7 28 29.7 0 2.3-3.5 5.8-5.8 5.8-1 0-15.1-13.4-32-30.3l-30.3-30.3.3-52.8c.3-50.9.4-52.8 2.2-54.2 2.5-1.8 4.7-1.8 7.2 0z"/></svg><svg version="1.0" viewBox="0 0 225 225" id="instagram" xmlns="http://www.w3.org/2000/svg"><path d="M64.3 29.5c-18 3.9-32.4 19-35.3 37.1-1.3 7.9-1.3 85.6 0 92.5 3.5 18.1 17.7 32.6 35.7 36.4 9.8 2.1 85.8 2.1 95.6 0 18-3.8 32.2-18.3 35.7-36.4 1.3-6.9 1.3-84.6 0-92.5-2.9-18-16.9-32.8-35.1-37.1-8.8-2-87.1-2.1-96.6 0zM167 38.6c8.3 3.9 15 10.6 19.2 19.2l3.3 6.7v96l-3.3 6.7c-4.2 8.6-10.9 15.3-19.2 19.2l-6.5 3.1h-96l-6.5-3.1c-8.3-3.9-15-10.6-19.2-19.2l-3.3-6.7v-96l3.3-6.7C44.2 46.9 54 38.7 64.7 36.1c2.1-.5 24.5-.9 49.8-.8l46 .2 6.5 3.1z"/><path d="M153 62.7c-5 6.4 2.9 14.3 9.3 9.3 1.8-1.5 2.7-3.1 2.7-5.1 0-6.5-8-9.3-12-4.2zM100.5 76.1c-11.7 3.7-20.8 13-24.5 24.8-6.4 20.3 4.6 41.7 24.9 48.1 20.3 6.4 41.7-4.6 48.1-24.9 9.4-29.8-18.7-57.7-48.5-48zm26 8.1c6 3.1 11.4 8.6 14.6 14.8 2 3.8 2.4 6 2.4 13.5 0 7.8-.4 9.7-2.7 14-3.2 6-8.7 11.4-14.8 14.6-3.8 2-6 2.4-13.5 2.4s-9.7-.4-13.5-2.4c-6.1-3.2-11.6-8.6-14.8-14.6-2.3-4.3-2.7-6.2-2.7-14 0-10.2 1.8-15 8.4-21.8 6.6-7.1 13.6-9.8 24.1-9.3 5.7.2 8.7.9 12.5 2.8z"/></svg><svg style="transform:rotate(270deg)" viewBox="0 0 438.536 438.536" id="tel" xmlns="http://www.w3.org/2000/svg"><path d="M414.41 24.123C398.333 8.042 378.963 0 356.315 0H82.228C59.58 0 40.21 8.042 24.126 24.123 8.045 40.207.003 59.576.003 82.225v274.084c0 22.647 8.042 42.018 24.123 58.102 16.084 16.084 35.454 24.126 58.102 24.126h274.084c22.648 0 42.018-8.042 58.095-24.126 16.084-16.084 24.126-35.454 24.126-58.102V82.225c-.001-22.649-8.043-42.021-24.123-58.102zm-55.251 308.751c-3.997 8.754-12.99 16.371-26.977 22.846-13.99 6.475-26.413 9.712-37.265 9.712-3.046 0-6.283-.235-9.708-.711-3.426-.479-6.324-.952-8.703-1.428-2.378-.476-5.523-1.331-9.421-2.57-3.905-1.234-6.715-2.189-8.422-2.854-1.718-.664-4.856-1.854-9.421-3.566-4.569-1.718-7.427-2.765-8.562-3.138-31.215-11.427-61.721-32.028-91.507-61.814-29.786-29.793-50.391-60.292-61.812-91.502-.378-1.143-1.425-3.999-3.14-8.565a952.564 952.564 0 0 0-3.571-9.419c-.662-1.713-1.615-4.521-2.853-8.42-1.237-3.903-2.091-7.041-2.568-9.423-.478-2.376-.95-5.277-1.427-8.704-.476-3.427-.713-6.667-.713-9.71 0-10.85 3.237-23.269 9.71-37.259 6.472-13.988 14.084-22.981 22.841-26.979 10.088-4.189 19.7-6.283 28.837-6.283 2.091 0 3.616.192 4.565.572.953.385 2.524 2.094 4.714 5.14 2.19 3.046 4.568 6.899 7.137 11.563 2.57 4.665 5.092 9.186 7.566 13.562a601.267 601.267 0 0 1 7.139 12.991c2.284 4.279 3.711 6.995 4.281 8.133.571.957 1.809 2.762 3.711 5.429 1.902 2.663 3.333 5.039 4.283 7.135.95 2.094 1.427 4.093 1.427 5.996 0 2.859-1.953 6.331-5.854 10.42-3.903 4.093-8.186 7.854-12.85 11.281s-8.945 7.092-12.847 10.994c-3.899 3.899-5.852 7.087-5.852 9.562 0 1.333.333 2.902 1 4.71.666 1.812 1.285 3.287 1.856 4.427.571 1.141 1.477 2.76 2.712 4.856 1.237 2.096 2.048 3.427 2.426 3.999 10.467 18.843 22.508 35.07 36.114 48.681 13.612 13.613 29.836 25.648 48.682 36.117.567.384 1.902 1.191 4.004 2.43 2.091 1.232 3.713 2.136 4.853 2.707 1.143.571 2.614 1.191 4.425 1.852 1.811.664 3.381.999 4.719.999 3.036 0 7.225-3.138 12.56-9.418a976.681 976.681 0 0 1 16.276-18.705c5.516-6.181 9.985-9.274 13.418-9.274 1.902 0 3.897.473 5.999 1.424 2.095.951 4.469 2.382 7.132 4.284 2.669 1.91 4.476 3.142 5.428 3.721l15.125 8.271c10.089 5.332 18.511 10.041 25.27 14.134s10.424 6.899 10.996 8.419c.379.951.564 2.478.564 4.572-.007 9.128-2.102 18.741-6.297 28.803z"/></svg></svg>