<?xml version="1.0" encoding="utf-8"?><svg viewBox="0 0 480 480" xmlns="http://www.w3.org/2000/svg" xmlns:xlink="http://www.w3.org/1999/xlink"><style>:root>svg{display:none}:root>svg:target{display:block}</style><svg viewBox="0 0 18 32" id="arrow-left" xmlns="http://www.w3.org/2000/svg"><path d="M.228 16.412c0-.551.21-1.101.628-1.521L14.029 1.682c.838-.84 2.197-.84 3.034 0s.838 2.202 0 3.042L5.407 16.411l11.656 11.688c.838.84.838 2.202 0 3.042s-2.196.841-3.034 0L.856 17.932a2.15 2.15 0 0 1-.628-1.521z"/></svg><svg viewBox="0 0 18 32" id="arrow-right" xmlns="http://www.w3.org/2000/svg"><path d="M17.692 16.412a2.15 2.15 0 0 0-.628-1.521L3.891 1.682c-.838-.84-2.197-.84-3.034 0s-.838 2.202 0 3.042l11.656 11.687L.857 28.099c-.838.84-.838 2.202 0 3.042s2.196.841 3.034 0l13.173-13.209c.418-.42.628-.97.628-1.521z"/></svg><svg version="1.0" viewBox="0 0 360 360" id="clock" xmlns="http://www.w3.org/2000/svg"><path d="M156 30.4C113.6 38 78.4 60.8 54.8 95.9c-11.9 17.8-19.3 35-23.4 54.6-2.7 12.7-2.7 46.2-.1 58.4 10.2 47.4 41.1 87.2 83.1 107.2C136 326.3 151 330 175 330.7c14.8.4 19.4.2 29.5-1.5 61.6-10.6 110.4-57.3 123.7-118.5 3.2-14.8 3.2-45.6 0-60.3-5.9-27.4-16.5-48.3-35.3-69.9C279 64.4 264.2 53 245.5 44c-13.1-6.3-20.3-8.9-34-12.1-11.6-2.7-43.9-3.6-55.5-1.5zm27.6 44c1.8 1.4 1.9 3.3 2.2 52.8l.3 51.3 27.9 28c15.7 15.7 28 28.7 28 29.7 0 2.3-3.5 5.8-5.8 5.8-1 0-15.1-13.4-32-30.3l-30.3-30.3.3-52.8c.3-50.9.4-52.8 2.2-54.2 2.5-1.8 4.7-1.8 7.2 0z"/></svg><svg version="1.0" viewBox="0 0 225 225" id="instagram" xmlns="http://www.w3.org/2000/svg"><path d="M64.3 29.5c-18 3.9-32.4 19-35.3 37.1-1.3 7.9-1.3 85.6 0 92.5 3.5 18.1 17.7 32.6 35.7 36.4 9.8 2.1 85.8 2.1 95.6 0 18-3.8 32.2-18.3 35.7-36.4 1.3-6.9 1.3-84.6 0-92.5-2.9-18-16.9-32.8-35.1-37.1-8.8-2-87.1-2.1-96.6 0zM167 38.6c8.3 3.9 15 10.6 19.2 19.2l3.3 6.7v96l-3.3 6.7c-4.2 8.6-10.9 15.3-19.2 19.2l-6.5 3.1h-96l-6.5-3.1c-8.3-3.9-15-10.6-19.2-19.2l-3.3-6.7v-96l3.3-6.7C44.2 46.9 54 38.7 64.7 36.1c2.1-.5 24.5-.9 49.8-.8l46 .2 6.5 3.1z"/><path d="M153 62.7c-5 6.4 2.9 14.3 9.3 9.3 1.8-1.5 2.7-3.1 2.7-5.1 0-6.5-8-9.3-12-4.2zM100.5 76.1c-11.7 3.7-20.8 13-24.5 24.8-6.4 20.3 4.6 41.7 24.9 48.1 20.3 6.4 41.7-4.6 48.1-24.9 9.4-29.8-18.7-57.7-48.5-48zm26 8.1c6 3.1 11.4 8.6 14.6 14.8 2 3.8 2.4 6 2.4 13.5 0 7.8-.4 9.7-2.7 14-3.2 6-8.7 11.4-14.8 14.6-3.8 2-6 2.4-13.5 2.4s-9.7-.4-13.5-2.4c-6.1-3.2-11.6-8.6-14.8-14.6-2.3-4.3-2.7-6.2-2.7-14 0-10.2 1.8-15 8.4-21.8 6.6-7.1 13.6-9.8 24.1-9.3 5.7.2 8.7.9 12.5 2.8z"/></svg><svg style="transform:rotate(270deg !important)" viewBox="0 0 15 15" id="tel" xmlns="http://www.w3.org/2000/svg"><path style="stroke:none;fill-rule:nonzero;fill:#000;fill-opacity:1" d="M14.16.824A2.702 2.702 0 0 0 12.176 0H2.809C2.035 0 1.375.273.824.824.274 1.375 0 2.035 0 2.81v9.367c0 .773.273 1.433.824 1.984.551.55 1.211.824 1.985.824h9.367c.773 0 1.433-.273 1.984-.824.55-.55.824-1.21.824-1.984V2.809c0-.774-.273-1.434-.824-1.985Zm-1.887 10.551c-.136.297-.445.559-.921.781-.48.219-.903.328-1.274.328-.105 0-.215-.007-.332-.023a2.906 2.906 0 0 1-.621-.137 2.767 2.767 0 0 1-.285-.097c-.059-.02-.168-.063-.324-.122A6.652 6.652 0 0 0 8.223 12c-1.067-.39-2.11-1.094-3.125-2.113-1.02-1.02-1.723-2.059-2.114-3.125a16.425 16.425 0 0 0-.23-.617c-.02-.06-.055-.153-.094-.286a2.906 2.906 0 0 1-.137-.62 2.001 2.001 0 0 1-.027-.333c0-.37.113-.793.332-1.273.223-.477.48-.785.781-.922.344-.14.672-.215.985-.215.074 0 .125.008.156.02.035.015.086.074.16.175.078.106.156.239.246.395.086.16.172.316.258.465.086.148.168.297.246.445.074.145.125.238.145.277.02.032.062.094.125.184.066.094.117.172.148.246.031.07.047.14.047.203 0 .098-.066.219-.2.356-.132.14-.277.27-.437.386-.16.118-.304.243-.441.375-.133.133-.2.243-.2.329 0 .043.012.097.036.16.023.062.043.113.062.152.02.04.051.094.094.164.043.074.07.117.082.137.36.644.77 1.2 1.234 1.664.465.465 1.02.875 1.665 1.234.02.012.062.04.136.082a2.4 2.4 0 0 0 .164.094c.04.02.09.04.153.063a.477.477 0 0 0 .16.035c.105 0 .246-.11.43-.325.183-.214.367-.425.558-.636.188-.211.34-.317.457-.317.067 0 .133.016.203.047.074.031.153.082.246.149l.184.125.52.28c.343.185.628.345.863.485.23.14.355.235.375.29.011.03.02.081.02.156 0 .312-.075.64-.216.984Zm0 0"/></svg></svg>